<svg xmlns="http://www.w3.org/2000/svg" xmlns:xlink="http://www.w3.org/1999/xlink" viewBox="0 0 44 44"><defs><style>.cls-1{fill:url(#New_Gradient_Swatch_1);}.cls-2{fill:url(#New_Gradient_Swatch_1-2);}.cls-3{fill:url(#New_Gradient_Swatch_1-3);}.cls-4{fill:url(#New_Gradient_Swatch_1-4);}.cls-5{fill:url(#New_Gradient_Swatch_1-5);}.cls-6{fill:url(#New_Gradient_Swatch_1-6);}.cls-7{fill:url(#New_Gradient_Swatch_1-7);}.cls-8{fill:url(#New_Gradient_Swatch_1-8);}.cls-9{fill:url(#New_Gradient_Swatch_1-9);}.cls-10{fill:url(#New_Gradient_Swatch_1-10);}.cls-11{fill:url(#New_Gradient_Swatch_1-11);}.cls-12{fill:url(#New_Gradient_Swatch_1-12);}</style><linearGradient id="New_Gradient_Swatch_1" x1="17" y1="7" x2="27" y2="7" gradientUnits="userSpaceOnUse"><stop offset="0" stop-color="#fdc12a"/><stop offset="1" stop-color="#f37335"/></linearGradient><linearGradient id="New_Gradient_Swatch_1-2" x1="12" y1="12" x2="23" y2="12" xlink:href="#New_Gradient_Swatch_1"/><linearGradient id="New_Gradient_Swatch_1-3" x1="12" y1="20" x2="25" y2="20" xlink:href="#New_Gradient_Swatch_1"/><linearGradient id="New_Gradient_Swatch_1-4" x1="12" y1="16" x2="18" y2="16" xlink:href="#New_Gradient_Swatch_1"/><linearGradient id="New_Gradient_Swatch_1-5" x1="20" y1="16" x2="26" y2="16" xlink:href="#New_Gradient_Swatch_1"/><linearGradient id="New_Gradient_Swatch_1-6" x1="28" y1="16" x2="32" y2="16" xlink:href="#New_Gradient_Swatch_1"/><linearGradient id="New_Gradient_Swatch_1-7" x1="25" y1="12" x2="32" y2="12" xlink:href="#New_Gradient_Swatch_1"/><linearGradient id="New_Gradient_Swatch_1-8" x1="0" y1="27.77" x2="44" y2="27.77" xlink:href="#New_Gradient_Swatch_1"/><linearGradient id="New_Gradient_Swatch_1-9" x1="4" y1="34.51" x2="13" y2="34.51" xlink:href="#New_Gradient_Swatch_1"/><linearGradient id="New_Gradient_Swatch_1-10" x1="31.03" y1="34.51" x2="39.97" y2="34.51" xlink:href="#New_Gradient_Swatch_1"/><linearGradient id="New_Gradient_Swatch_1-11" x1="3.95" y1="25.32" x2="40.01" y2="25.32" xlink:href="#New_Gradient_Swatch_1"/><linearGradient id="New_Gradient_Swatch_1-12" x1="8" y1="9.5" x2="36" y2="9.5" xlink:href="#New_Gradient_Swatch_1"/></defs><g id="Layer_2"><g id="Layer_1-2" data-name="Layer 1"><path class="cls-1" d="M26,6H18a.94.94,0,0,0-1,1,.94.94,0,0,0,1,1h8a.94.94,0,0,0,1-1A.94.94,0,0,0,26,6Z"/><path class="cls-2" d="M12,12a.94.94,0,0,0,1,1h9a1,1,0,0,0,0-2H13A.94.94,0,0,0,12,12Z"/><path class="cls-3" d="M13,21H24a1,1,0,0,0,0-2H13a1,1,0,0,0,0,2Z"/><path class="cls-4" d="M13,17h4a1,1,0,0,0,0-2H13a1,1,0,0,0,0,2Z"/><path class="cls-5" d="M21,15a1,1,0,0,0,0,2h4a1,1,0,0,0,0-2Z"/><path class="cls-6" d="M31,15H29a1,1,0,0,0,0,2h2a1,1,0,0,0,0-2Z"/><path class="cls-7" d="M31,11H26a1,1,0,0,0,0,2h5a1,1,0,0,0,0-2Z"/><path class="cls-8" d="M41.6,13l-2.1-1.3a1,1,0,1,0-1.1,1.7l2.1,1.3a3,3,0,0,1,1.4,2.6V41a.94.94,0,0,1-1,1H3a.94.94,0,0,1-1-1V17.2a3.14,3.14,0,0,1,1.4-2.6l2.1-1.3a.95.95,0,1,0-1-1.6L2.4,13A4.91,4.91,0,0,0,0,17.2V41a3,3,0,0,0,3,3H41a3,3,0,0,0,3-3V17.2A4.91,4.91,0,0,0,41.6,13Z"/><path class="cls-9" d="M11.2,29.4l-7,9a1,1,0,0,0,.2,1.4A1.42,1.42,0,0,0,5,40a.91.91,0,0,0,.8-.4l7-9a1,1,0,0,0-.2-1.4A1.08,1.08,0,0,0,11.2,29.4Z"/><path class="cls-10" d="M31.4,29.2a1.08,1.08,0,0,0-.2,1.4l7,9a.91.91,0,0,0,.8.4,1.42,1.42,0,0,0,.6-.2,1.08,1.08,0,0,0,.2-1.4l-7-9A1.09,1.09,0,0,0,31.4,29.2Z"/><path class="cls-11" d="M39.8,18.4a1,1,0,0,0-1.4-.1L23.9,30.1a3,3,0,0,1-3.8,0L5.6,18.2a1,1,0,1,0-1.3,1.5L18.8,31.6A4.63,4.63,0,0,0,22,32.7a5.17,5.17,0,0,0,3.2-1.1L39.7,19.7A.93.93,0,0,0,39.8,18.4Z"/><path class="cls-12" d="M9,19a.94.94,0,0,0,1-1V3a.94.94,0,0,1,1-1H33a.94.94,0,0,1,1,1V18a1,1,0,0,0,2,0V3a3,3,0,0,0-3-3H11A3,3,0,0,0,8,3V18A.94.94,0,0,0,9,19Z"/></g></g></svg>