<svg xmlns="http://www.w3.org/2000/svg" xmlns:xlink="http://www.w3.org/1999/xlink" viewBox="0 0 44 44"><defs><style>.cls-1{fill:url(#New_Gradient_Swatch_1);}.cls-2{fill:url(#New_Gradient_Swatch_1-2);}.cls-3{fill:url(#New_Gradient_Swatch_1-3);}.cls-4{fill:url(#New_Gradient_Swatch_1-4);}</style><linearGradient id="New_Gradient_Swatch_1" x1="20" y1="15" x2="26" y2="15" gradientUnits="userSpaceOnUse"><stop offset="0" stop-color="#fdc12a"/><stop offset="1" stop-color="#f37335"/></linearGradient><linearGradient id="New_Gradient_Swatch_1-2" y1="12" x2="32" y2="12" xlink:href="#New_Gradient_Swatch_1"/><linearGradient id="New_Gradient_Swatch_1-3" y1="9" x2="38" y2="9" xlink:href="#New_Gradient_Swatch_1"/><linearGradient id="New_Gradient_Swatch_1-4" x1="0" y1="22" x2="44" y2="22" xlink:href="#New_Gradient_Swatch_1"/></defs><g id="Layer_2"><g id="Layer_1-2"><path class="cls-1" d="M21,14a3,3,0,0,1,3,3,1,1,0,0,0,2,0,5,5,0,0,0-5-5,1,1,0,0,0,0,2Z"/><path class="cls-2" d="M21,8a9,9,0,0,1,9,9,1,1,0,0,0,2,0A11,11,0,0,0,21,6a.94.94,0,0,0-1,1A.94.94,0,0,0,21,8Z"/><path class="cls-3" d="M21,2A15,15,0,0,1,36,17a1,1,0,0,0,2,0A17,17,0,0,0,21,0a.94.94,0,0,0-1,1A.94.94,0,0,0,21,2Z"/><path class="cls-4" d="M38,31V28.7a3,3,0,0,0-3-3h-.6a23.3,23.3,0,0,1-7-1.1,3.18,3.18,0,0,0-3.5,1.2L23,27.3a1.13,1.13,0,0,1-1.3.4A27.25,27.25,0,0,1,10.3,16.3a1,1,0,0,1,.4-1.3l1.5-.9a2.87,2.87,0,0,0,1.2-3.5,20.92,20.92,0,0,1-1.1-7V3a3,3,0,0,0-3-3H5A5,5,0,0,0,0,5,33,33,0,0,0,33,38a4.6,4.6,0,0,0,3.3-1.3A1,1,0,1,0,35,35.2a2.88,2.88,0,0,1-2,.7A30.88,30.88,0,0,1,2,5,3,3,0,0,1,5,2H6V4a28.56,28.56,0,0,0,1,7.7,1,1,0,0,0,1,.7h.3A1,1,0,0,0,9,11.2,25,25,0,0,1,8,4V2H9.3a.94.94,0,0,1,1,1v.6a24.18,24.18,0,0,0,1.2,7.6,1.15,1.15,0,0,1-.4,1.2l-1.5.9a3.14,3.14,0,0,0-1.1,4A29.87,29.87,0,0,0,20.7,29.5a3.06,3.06,0,0,0,4-1.1l.9-1.5a.93.93,0,0,1,1.2-.4,24.64,24.64,0,0,0,7.6,1.2H35a.94.94,0,0,1,1,1V31H34a25,25,0,0,1-7.2-1,1,1,0,1,0-.5,1.9,28.56,28.56,0,0,0,7.7,1h3.5A4.48,4.48,0,0,1,42,37.4,4.57,4.57,0,0,1,37.5,42H16a4.48,4.48,0,0,1-4.5-4.5A6.49,6.49,0,0,0,5,31a1,1,0,0,0,0,2,4.48,4.48,0,0,1,4.5,4.5A6.49,6.49,0,0,0,16,44H37.5A6.51,6.51,0,0,0,38,31Z"/></g></g></svg>