<svg xmlns="http://www.w3.org/2000/svg" xmlns:xlink="http://www.w3.org/1999/xlink" viewBox="0 0 44 40"><defs><style>.cls-1{fill:url(#New_Gradient_Swatch_1);}.cls-2{fill:url(#New_Gradient_Swatch_1-2);}.cls-3{fill:url(#New_Gradient_Swatch_1-3);}.cls-4{fill:url(#New_Gradient_Swatch_1-4);}.cls-5{fill:url(#New_Gradient_Swatch_1-5);}.cls-6{fill:url(#New_Gradient_Swatch_1-6);}.cls-7{fill:url(#New_Gradient_Swatch_1-7);}.cls-8{fill:url(#New_Gradient_Swatch_1-8);}</style><linearGradient id="New_Gradient_Swatch_1" y1="25" x2="30" y2="25" gradientUnits="userSpaceOnUse"><stop offset="0" stop-color="#fdc12a"/><stop offset="1" stop-color="#f37335"/></linearGradient><linearGradient id="New_Gradient_Swatch_1-2" y1="20" x2="44" y2="20" xlink:href="#New_Gradient_Swatch_1"/><linearGradient id="New_Gradient_Swatch_1-3" x1="15" x2="17" xlink:href="#New_Gradient_Swatch_1"/><linearGradient id="New_Gradient_Swatch_1-4" x1="21" x2="23" xlink:href="#New_Gradient_Swatch_1"/><linearGradient id="New_Gradient_Swatch_1-5" x1="27" x2="29" xlink:href="#New_Gradient_Swatch_1"/><linearGradient id="New_Gradient_Swatch_1-6" x1="15" y1="7" x2="17" y2="7" xlink:href="#New_Gradient_Swatch_1"/><linearGradient id="New_Gradient_Swatch_1-7" x1="21" y1="7" x2="23" y2="7" xlink:href="#New_Gradient_Swatch_1"/><linearGradient id="New_Gradient_Swatch_1-8" x1="27" y1="7" x2="29" y2="7" xlink:href="#New_Gradient_Swatch_1"/></defs><g id="Layer_2" data-name="Layer 2"><g id="Layer_1-2" data-name="Layer 1"><path class="cls-1" d="M8,31a.94.94,0,0,0-1-1H3a.94.94,0,0,1-1-1V21a.94.94,0,0,1,1-1H29a1,1,0,0,0,0-2H3a3,3,0,0,0-3,3v8a3,3,0,0,0,3,3H7A.94.94,0,0,0,8,31Z"/><path class="cls-2" d="M41,12H37a1,1,0,0,0,0,2h4a3,3,0,0,0,3-3V3a3,3,0,0,0-3-3H3A3,3,0,0,0,0,3v8a3,3,0,0,0,3,3H24.2a7.1,7.1,0,0,1,4.4,1.5l7.8,6.2a1.42,1.42,0,0,0,.6.2.6.6,0,0,0,.4-.1,1.15,1.15,0,0,0,.6-.9v-1h3a.94.94,0,0,1,1,1v8a.94.94,0,0,1-1,1H19.8a8.93,8.93,0,0,0-5.6,2L8,36.9V35a.94.94,0,0,0-1-1,.94.94,0,0,0-1,1v4a1,1,0,0,0,.6.9A.6.6,0,0,0,7,40a1.42,1.42,0,0,0,.6-.2l7.8-6.2a6.9,6.9,0,0,1,4.4-1.5H41a3,3,0,0,0,3-3v-8a3,3,0,0,0-3-3H38v-1a1,1,0,0,0-2,0V19l-6.2-5a8.93,8.93,0,0,0-5.6-2H3a.94.94,0,0,1-1-1V3A.94.94,0,0,1,3,2H41a.94.94,0,0,1,1,1v8A.94.94,0,0,1,41,12Z"/><circle class="cls-3" cx="16" cy="25" r="1"/><circle class="cls-4" cx="22" cy="25" r="1"/><circle class="cls-5" cx="28" cy="25" r="1"/><circle class="cls-6" cx="16" cy="7" r="1"/><circle class="cls-7" cx="22" cy="7" r="1"/><circle class="cls-8" cx="28" cy="7" r="1"/></g></g></svg>